<?xml version="1.0" encoding="utf-8"?>
<!-- Generator: Adobe Illustrator 21.1.0, SVG Export Plug-In . SVG Version: 6.00 Build 0)  -->
<svg version="1.1" id="Layer_1" xmlns="http://www.w3.org/2000/svg" xmlns:xlink="http://www.w3.org/1999/xlink" x="0px" y="0px"
	 viewBox="0 0 1600 1200" enable-background="new 0 0 1600 1200" xml:space="preserve">
<g id="XMLID_309_">
	<g id="XMLID_62_">
		<g id="XMLID_42_">
			<path id="XMLID_57_" fill="#E5EAED" d="M816.124,563.307c0,0-65.848,5.16-68.052-56.525l-6.817,6.613l3.028,32.873l19.396,19.271
				L800,566.505l10.197,1.868L816.124,563.307z"/>
			<path id="XMLID_11_" fill="#27E1CE" d="M734.572,602.809c0,0,20.471-7.513,25.306,3.326l-8.433,38.655
				c0,0,33.47,5.341,45.155,21.282h6.801l14.449-11.584c0,0,13.358-8.183,14.862-8.183s15.844-1.516,15.844-1.516l-5.362-29.303
				l-1.735-10.822l8.06-3.418l13.654,0.688v-13.865l-11.243-21.68l-8.736-5.314c0,0-12.279,3.826-12.86,4.038
				c-0.581,0.213-20.057,1.063-23.072,1.488c-3.015,0.425-36.597-1.7-36.597-1.7s-12.286-4.366-13.857-3.826
				c-1.571,0.54-17.14,13.178-17.14,13.178l-5.095,24.018"/>
			<path id="XMLID_17_" opacity="0.15" fill="#3B4E60" d="M840.122,620.942c0,0-26.089,13.203-36.721,41.034l12.722-4.157
				c0,0,16.462-10.096,17.454-10.238c0.992-0.142,14.978-2.791,14.978-2.791l-3.784-21.722"/>
			<path id="XMLID_36_" opacity="0.15" fill="#3B4E60" d="M759.878,620.942c0,0,26.089,13.203,36.721,41.034l-12.722-4.157
				c0,0-16.462-10.096-17.454-10.238c-0.992-0.142-14.978-2.791-14.978-2.791l3.784-21.722"/>
			<g id="XMLID_34_">
				<path id="XMLID_12_" fill="#E5EAED" d="M773.089,667.454c0,0-3.484-17.401-28.806-17.415c0,0,11.722-4.517,12.754-4.603
					s21.862,4.448,22.853,5.44s13.886,14.311,13.886,14.311l1.275,2.976c0,0-17.145,3.826-17.854,3.967
					C776.49,672.272,773.089,667.454,773.089,667.454z"/>
				<path id="XMLID_16_" fill="#E5EAED" d="M741.349,619.277c0,0-3.082,10.769,3.826,23.415l6.27-3.826c0,0-5.632-8.077-5.845-8.608
					c-0.213-0.531-3.401-6.801-3.401-6.801S741.349,622.005,741.349,619.277z"/>
				<g id="XMLID_5_">
					<g>
						<rect id="XMLID_99_" x="796.599" y="638.123" fill="#3B4E60" width="6.801" height="32.732"/>
					</g>
				</g>
				<g id="XMLID_4_">
					<g>
						<path id="XMLID_149_" fill="#3B4E60" d="M807.261,674.255H723.15c-3.37,0-6.292-1.928-7.627-5.03
							c-1.324-3.079-0.719-6.497,1.579-8.922c8.463-8.932,22.254-19.423,39.904-18.901c15.59,0.497,30.934,9.672,45.606,27.275
							L807.261,674.255z M755.668,648.184c-14.603,0-26.31,9.075-33.629,16.799c-0.56,0.591-0.409,1.229-0.267,1.556
							c0.118,0.276,0.489,0.915,1.378,0.915h69.284c-11.783-12.404-23.75-18.875-35.643-19.254
							C756.415,648.189,756.039,648.184,755.668,648.184z"/>
					</g>
				</g>
				<g id="XMLID_7_">
					<g>
						<path id="XMLID_95_" fill="#3B4E60" d="M800,644.813c-7.635,0-14.082-5.189-15.999-12.225
							c-0.595-2.186,1.012-4.353,3.277-4.353l0,0c1.552,0,2.877,1.059,3.283,2.557c1.127,4.155,4.931,7.22,9.438,7.22
							s8.311-3.065,9.438-7.22c0.406-1.498,1.732-2.557,3.284-2.557l0,0c2.266,0,3.873,2.167,3.277,4.353
							C814.081,639.624,807.635,644.813,800,644.813z"/>
					</g>
				</g>
				<g id="XMLID_6_">
					<g>
						<path id="XMLID_142_" fill="#3B4E60" d="M818.63,570.109h-37.26c-24.56,0-44.541-19.981-44.541-44.541v-1.036
							c0-24.56,19.981-44.541,44.541-44.541h37.26c24.56,0,44.542,19.981,44.542,44.541v1.036
							C863.172,550.128,843.19,570.109,818.63,570.109z M781.37,486.792c-20.81,0-37.74,16.93-37.74,37.74v1.036
							c0,20.809,16.93,37.74,37.74,37.74h37.26c20.81,0,37.741-16.93,37.741-37.74v-1.036c0-20.809-16.93-37.74-37.741-37.74H781.37
							z"/>
					</g>
				</g>
				<g id="XMLID_9_">
					<g>
						<path id="XMLID_93_" fill="#3B4E60" d="M759.878,602.441c-4.265-3.52-9.706-5.658-15.66-5.658
							c-13.654,0-24.762,11.107-24.762,24.761s11.108,24.761,24.762,24.761c3.104,0,6.064-0.599,8.804-1.646
							c-1.037-2.101-1.416-4.542-1.138-6.898c-2.329,1.105-4.921,1.742-7.666,1.742c-9.903,0-17.961-8.057-17.961-17.96
							c0-9.903,8.058-17.96,17.961-17.96c5.669,0,10.722,2.645,14.012,6.762c0.101-0.162,0.222-0.31,0.331-0.466
							C758.231,607.333,758.667,604.671,759.878,602.441z"/>
					</g>
				</g>
				<g id="XMLID_10_">
					<g>
						<path id="XMLID_86_" fill="#3B4E60" d="M738.633,601.622c-0.087-1.071-0.144-2.151-0.144-3.245
							c0-15.798,9.293-29.461,22.697-35.824c-2.166-1.206-3.664-3.134-4.498-5.347c-14.842,7.758-25.001,23.296-25.001,41.171
							c0,2.133,0.157,4.23,0.437,6.287C733.687,603.018,735.852,601.871,738.633,601.622z"/>
					</g>
				</g>
				<path id="XMLID_13_" fill="#3B4E60" d="M749.709,639.682c0,0-9.494-3.684-8.36-20.404c0,0,1.134,11.902,13.319,11.052"/>
				<g id="XMLID_14_">
					<g>
						<path id="XMLID_141_" fill="#3B4E60" d="M760.069,582.84l-11.998,61.291l6.675,1.305l10.796-55.151
							C764.016,589.226,761.624,587.009,760.069,582.84z"/>
						<path id="XMLID_140_" fill="#3B4E60" d="M761.466,577.603c-2.471-3.141-2.83-6.894-2.83-6.894
							c-0.354,5.219,0.328,9.168,1.433,12.131l1.039-5.307L761.466,577.603z"/>
						<path id="XMLID_128_" fill="#3B4E60" d="M761.466,577.603l-0.358-0.07l-1.039,5.307c1.555,4.169,3.946,6.386,5.473,7.445
							l1.746-8.921C764.624,580.673,762.748,579.232,761.466,577.603z"/>
					</g>
				</g>
				<g id="XMLID_8_">
					<g>
						<path id="XMLID_90_" fill="#3B4E60" d="M801.003,467.946c-1.666,0-3.128-0.312-4.404-0.846v16.716h6.801v-16.103
							C802.651,467.862,801.854,467.946,801.003,467.946z"/>
					</g>
				</g>
				<g id="XMLID_15_">
					<g>
						<path id="XMLID_120_" fill="#3B4E60" d="M800,472.197c-7.344,0-13.319-5.976-13.319-13.321
							c0-7.344,5.974-13.319,13.319-13.319c7.344,0,13.32,5.974,13.32,13.319C813.319,466.221,807.344,472.197,800,472.197z
							 M800,452.359c-3.594,0-6.517,2.924-6.517,6.517c0,3.595,2.923,6.519,6.517,6.519c3.594,0,6.518-2.924,6.518-6.519
							C806.518,455.284,803.594,452.359,800,452.359z"/>
					</g>
				</g>
			</g>
			<g id="XMLID_37_">
				<path id="XMLID_153_" fill="#E5EAED" d="M826.911,667.454c0,0,3.484-17.401,28.806-17.415c0,0-11.722-4.517-12.754-4.603
					s-21.862,4.448-22.853,5.44s-13.886,14.311-13.886,14.311l-1.275,2.976c0,0,17.145,3.826,17.854,3.967
					C823.51,672.272,826.911,667.454,826.911,667.454z"/>
				<path id="XMLID_152_" fill="#E5EAED" d="M858.651,619.277c0,0,3.082,10.769-3.826,23.415l-6.27-3.826
					c0,0,5.632-8.077,5.845-8.608c0.213-0.531,3.401-6.801,3.401-6.801S858.651,622.005,858.651,619.277z"/>
				<g id="XMLID_147_">
					<g>
						<rect id="XMLID_91_" x="796.6" y="638.123" fill="#3B4E60" width="6.801" height="32.732"/>
					</g>
				</g>
				<g id="XMLID_138_">
					<g>
						<path id="XMLID_122_" fill="#3B4E60" d="M797.388,668.678c14.671-17.603,30.015-26.779,45.606-27.275
							c17.649-0.521,31.441,9.97,39.904,18.901c2.298,2.424,2.903,5.843,1.579,8.922c-1.334,3.102-4.257,5.03-7.627,5.03h-84.111
							L797.388,668.678z M843.21,648.201c-11.893,0.379-23.861,6.85-35.643,19.254h69.284c0.889,0,1.26-0.639,1.378-0.915
							c0.141-0.327,0.293-0.965-0.267-1.556c-7.32-7.725-19.026-16.799-33.629-16.799
							C843.961,648.184,843.585,648.189,843.21,648.201z"/>
					</g>
				</g>
				<g id="XMLID_133_">
					<g>
						<path id="XMLID_82_" fill="#3B4E60" d="M800,644.813c7.635,0,14.082-5.189,15.999-12.225c0.595-2.186-1.012-4.353-3.277-4.353
							l0,0c-1.552,0-2.877,1.059-3.283,2.557c-1.127,4.155-4.931,7.22-9.438,7.22s-8.311-3.065-9.438-7.22
							c-0.406-1.498-1.732-2.557-3.284-2.557l0,0c-2.266,0-3.873,2.167-3.277,4.353C785.919,639.624,792.365,644.813,800,644.813z"
							/>
					</g>
				</g>
				<g id="XMLID_124_">
					<g>
						<path id="XMLID_129_" fill="#3B4E60" d="M736.828,525.568v-1.036c0-24.56,19.982-44.541,44.542-44.541h37.26
							c24.56,0,44.541,19.981,44.541,44.541v1.036c0,24.56-19.981,44.541-44.541,44.541h-37.26
							C756.81,570.109,736.828,550.128,736.828,525.568z M781.37,486.792c-20.81,0-37.741,16.93-37.741,37.74v1.036
							c0,20.809,16.93,37.74,37.741,37.74h37.26c20.81,0,37.74-16.93,37.74-37.74v-1.036c0-20.809-16.93-37.74-37.74-37.74H781.37z"
							/>
					</g>
				</g>
				<g id="XMLID_119_">
					<g>
						<path id="XMLID_80_" fill="#3B4E60" d="M840.122,602.441c4.265-3.52,9.706-5.658,15.66-5.658
							c13.654,0,24.762,11.107,24.762,24.761s-11.108,24.761-24.762,24.761c-3.104,0-6.064-0.599-8.804-1.646
							c1.037-2.101,1.416-4.542,1.138-6.898c2.329,1.105,4.921,1.742,7.666,1.742c9.903,0,17.961-8.057,17.961-17.96
							c0-9.903-8.058-17.96-17.961-17.96c-5.669,0-10.722,2.645-14.012,6.762c-0.101-0.162-0.222-0.31-0.331-0.466
							C841.769,607.333,841.333,604.671,840.122,602.441z"/>
					</g>
				</g>
				<g id="XMLID_114_">
					<g>
						<path id="XMLID_79_" fill="#3B4E60" d="M861.367,601.622c0.087-1.071,0.144-2.151,0.144-3.245
							c0-15.798-9.293-29.461-22.697-35.824c2.166-1.206,3.664-3.134,4.498-5.347c14.842,7.758,25.001,23.296,25.001,41.171
							c0,2.133-0.157,4.23-0.437,6.287C866.313,603.018,864.148,601.871,861.367,601.622z"/>
					</g>
				</g>
				<path id="XMLID_89_" fill="#3B4E60" d="M850.291,639.682c0,0,9.494-3.684,8.36-20.404c0,0-1.134,11.902-13.319,11.052"/>
				<g id="XMLID_77_">
					<g>
						<path id="XMLID_156_" fill="#3B4E60" d="M839.931,582.84l11.998,61.291l-6.675,1.305l-10.796-55.151
							C835.984,589.226,838.376,587.009,839.931,582.84z"/>
						<path id="XMLID_150_" fill="#3B4E60" d="M838.534,577.603c2.471-3.141,2.83-6.894,2.83-6.894
							c0.354,5.219-0.328,9.168-1.433,12.131l-1.039-5.307L838.534,577.603z"/>
						<path id="XMLID_139_" fill="#3B4E60" d="M838.534,577.603l0.358-0.07l1.039,5.307c-1.555,4.169-3.946,6.386-5.473,7.445
							l-1.746-8.921C835.376,580.673,837.252,579.232,838.534,577.603z"/>
					</g>
				</g>
				<g id="XMLID_54_">
					<g>
						<path id="XMLID_81_" fill="#3B4E60" d="M798.997,467.946c1.666,0,3.128-0.312,4.404-0.846v16.716H796.6v-16.103
							C797.349,467.862,798.146,467.946,798.997,467.946z"/>
					</g>
				</g>
				<g id="XMLID_39_">
					<g>
						<path id="XMLID_162_" fill="#3B4E60" d="M786.681,458.877c0-7.344,5.975-13.319,13.32-13.319
							c7.344,0,13.319,5.974,13.319,13.319c0,7.344-5.974,13.321-13.319,13.321C792.656,472.197,786.681,466.221,786.681,458.877z
							 M793.482,458.877c0,3.595,2.924,6.519,6.518,6.519c3.594,0,6.517-2.924,6.517-6.519c0-3.593-2.923-6.517-6.517-6.517
							C796.406,452.359,793.482,455.284,793.482,458.877z"/>
					</g>
				</g>
			</g>
			<path id="XMLID_40_" opacity="0.15" fill="#3B4E60" d="M758.542,563.935c0,0-16.075,12.36-1.87,36.26
				c0,0-11.088,1.37-11.726,1.264c-0.638-0.106-11.371-1.169-10.946-3.72c0.425-2.551,4.357-18.066,5.207-19.66
				c0.85-1.594,12.434-12.54,12.859-12.965c0.425-0.425,6.475-5.207,6.475-5.207"/>
			<path id="XMLID_41_" opacity="0.15" fill="#3B4E60" d="M841.286,563.935c0,0,16.075,12.36,1.87,36.26
				c0,0,11.088,1.37,11.726,1.264c0.638-0.106,11.371-1.169,10.946-3.72c-0.425-2.551-4.357-18.066-5.207-19.66
				c-0.85-1.594-12.434-12.54-12.859-12.965c-0.425-0.425-6.475-5.207-6.475-5.207"/>
			<circle id="XMLID_35_" fill="#3B4E60" cx="790.977" cy="520.622" r="12.54"/>
			<circle id="XMLID_43_" fill="#3B4E60" cx="827.777" cy="520.622" r="12.54"/>
			<circle id="XMLID_45_" fill="#FFFFFF" cx="784.707" cy="514.352" r="6.27"/>
			<circle id="XMLID_55_" fill="#3B4E60" cx="827.777" cy="520.622" r="12.54"/>
			<circle id="XMLID_49_" fill="#FFFFFF" cx="821.507" cy="514.352" r="6.27"/>
		</g>
		<g id="XMLID_2_">
			<g id="XMLID_44_">
				<path id="XMLID_46_" fill="#3B4E60" d="M598.939,727.013c-17.023,0-25.532-5.348-25.532-16.045v-3.364
					c0-10.695,8.509-16.043,25.532-16.043h8.625c1.381,0,2.286,0.389,2.717,1.165c0.431,0.776,0.647,1.939,0.647,3.493
					c0,1.552-0.216,2.717-0.647,3.493c-0.431,0.776-1.336,1.165-2.717,1.165h-8.884c-5.061,0-8.64,0.647-10.739,1.939
					c-2.1,1.294-3.148,2.89-3.148,4.787v3.364c0,1.841,1.049,3.422,3.148,4.745c2.099,1.323,5.679,1.983,10.739,1.983h20.356
					c17.021,0,25.532,5.348,25.532,16.045v4.312c0,10.697-8.511,16.045-25.532,16.045h-42.265c-1.381,0-2.286-0.389-2.717-1.165
					c-0.431-0.776-0.647-1.941-0.647-3.493c0-1.552,0.216-2.717,0.647-3.493c0.431-0.776,1.336-1.165,2.717-1.165h42.524
					c5.06,0,8.639-0.647,10.738-1.941c2.099-1.292,3.148-2.888,3.148-4.787v-4.312c0-1.841-1.049-3.422-3.148-4.745
					c-2.099-1.321-5.679-1.983-10.738-1.983H598.939z"/>
				<path id="XMLID_56_" fill="#3B4E60" d="M686.23,750.733c-1.093,2.473-3.307,3.709-6.642,3.709c-1.669,0-3.105-0.316-4.313-0.949
					c-1.207-0.632-2.128-1.639-2.759-3.018l-23.979-53.221c-0.346-0.689-0.518-1.35-0.518-1.983c0-1.263,0.589-2.257,1.769-2.975
					c1.178-0.718,2.687-1.078,4.528-1.078c1.322,0,2.371,0.216,3.148,0.647c0.776,0.431,1.365,1.078,1.768,1.941l20.184,47.354
					l20.961-45.63c0.805-1.666,1.668-2.802,2.588-3.406c0.919-0.603,2.242-0.905,3.968-0.905c1.839,0,3.147,0.302,3.924,0.905
					c0.776,0.605,1.538,1.741,2.286,3.406l20.874,45.63l20.701-47.354c0.747-1.725,2.386-2.588,4.917-2.588
					c1.84,0,3.349,0.36,4.528,1.078c1.178,0.718,1.769,1.712,1.769,2.975c0,0.634-0.173,1.294-0.518,1.983l-24.496,53.221
					c-1.208,2.646-3.566,3.967-7.074,3.967c-1.552,0-2.918-0.289-4.097-0.863c-1.179-0.574-2.084-1.523-2.717-2.846l-20.356-44.336
					L686.23,750.733z"/>
				<path id="XMLID_59_" fill="#3B4E60" d="M782.491,750.388c0,1.668-0.49,2.759-1.466,3.277c-0.979,0.518-2.416,0.776-4.313,0.776
					c-1.841,0-3.25-0.258-4.226-0.776c-0.979-0.518-1.466-1.61-1.466-3.277v-55.118c0-1.668,0.487-2.759,1.466-3.277
					c0.976-0.518,2.385-0.776,4.226-0.776c1.898,0,3.334,0.258,4.313,0.776c0.976,0.518,1.466,1.61,1.466,3.277V750.388z"/>
				<path id="XMLID_61_" fill="#3B4E60" d="M801.208,727.962v10.09c0,1.843,1.15,3.422,3.45,4.745
					c2.299,1.323,5.98,1.983,11.041,1.983h41.23c1.381,0,2.287,0.389,2.717,1.165c0.431,0.776,0.647,1.941,0.647,3.493
					c0,1.496-0.216,2.646-0.647,3.451c-0.43,0.805-1.336,1.207-2.717,1.207h-41.575c-17.022,0-25.532-5.348-25.532-16.045v-30.448
					c0-10.695,8.51-16.043,25.532-16.043h39.963c1.322,0,2.2,0.389,2.631,1.165c0.431,0.776,0.647,1.939,0.647,3.493
					c0,1.552-0.216,2.717-0.647,3.493c-0.431,0.776-1.309,1.165-2.631,1.165h-39.618c-5.061,0-8.742,0.647-11.041,1.939
					c-2.3,1.294-3.45,2.89-3.45,4.787v11.042h29.872c1.381,0,2.286,0.389,2.717,1.165c0.431,0.776,0.647,1.941,0.647,3.493
					c0,1.552-0.216,2.717-0.647,3.493c-0.431,0.776-1.336,1.165-2.717,1.165H801.208z"/>
				<path id="XMLID_70_" fill="#3B4E60" d="M944.047,738.053c0,5.521-2.171,9.576-6.513,12.162
					c-4.342,2.588-10.71,3.882-19.105,3.882h-26.136c-17.022,0-25.532-5.348-25.532-16.045v-30.448
					c0-10.695,8.51-16.043,25.532-16.043h12.162c1.38,0,2.286,0.389,2.717,1.165c0.43,0.776,0.646,1.939,0.646,3.493
					c0,1.552-0.216,2.717-0.646,3.493c-0.431,0.776-1.337,1.165-2.717,1.165h-11.818c-5.061,0-8.742,0.647-11.041,1.939
					c-2.3,1.294-3.45,2.89-3.45,4.787v30.448c0,1.843,1.15,3.422,3.45,4.745c2.299,1.323,5.98,1.983,11.041,1.983h25.446
					c5.06,0,8.725-0.66,10.997-1.983c2.271-1.323,3.407-2.902,3.407-4.745V722.7c0-1.666,0.475-2.759,1.423-3.277
					c0.949-0.518,2.372-0.776,4.27-0.776s3.349,0.258,4.356,0.776c1.005,0.518,1.51,1.612,1.51,3.277V738.053z"/>
				<path id="XMLID_73_" fill="#3B4E60" d="M975.961,754.097c-17.022,0-25.532-5.348-25.532-16.045v-30.448
					c0-10.695,8.51-16.043,25.532-16.043h25.1c17.021,0,25.532,5.348,25.532,16.043v30.448c0,10.697-8.511,16.045-25.532,16.045
					H975.961z M1000.716,744.781c5.06,0,8.741-0.66,11.041-1.983c2.299-1.323,3.451-2.902,3.451-4.745v-30.448
					c0-1.897-1.152-3.493-3.451-4.787c-2.3-1.292-5.981-1.939-11.041-1.939h-24.411c-5.061,0-8.742,0.647-11.041,1.939
					c-2.3,1.294-3.45,2.89-3.45,4.787v30.448c0,1.843,1.15,3.422,3.45,4.745c2.299,1.323,5.98,1.983,11.041,1.983H1000.716z"/>
			</g>
			<path id="XMLID_126_" fill="#3B4E60" d="M938.758,718.664h-26.666c-1.322,0-2.2,0.389-2.631,1.165
				c-0.431,0.776-0.647,1.941-0.647,3.493c0,1.554,0.216,2.717,0.647,3.493c0.431,0.776,1.309,1.165,2.631,1.165h25.136
				C937.62,724.858,938.165,721.759,938.758,718.664z"/>
		</g>
	</g>
	<path id="XMLID_310_" fill="#3B4E60" d="M794.779,541.92c0.205,6.888,5.85,12.41,12.787,12.41c6.938,0,12.582-5.522,12.787-12.41
		H794.779z"/>
	<path id="XMLID_307_" fill="#3B4E60" d="M796.891,600.931c-9.601,0-14.401-3.016-14.401-9.049v-1.897
		c0-6.032,4.799-9.048,14.401-9.048h4.865c0.779,0,1.289,0.219,1.532,0.657c0.243,0.438,0.365,1.094,0.365,1.97
		c0,0.875-0.122,1.532-0.365,1.97c-0.243,0.438-0.754,0.657-1.532,0.657h-5.011c-2.854,0-4.873,0.365-6.057,1.094
		c-1.184,0.73-1.776,1.63-1.776,2.7v1.897c0,1.038,0.591,1.93,1.776,2.676c1.184,0.746,3.203,1.119,6.057,1.119h11.481
		c9.6,0,14.401,3.016,14.401,9.049v2.432c0,6.033-4.801,9.049-14.401,9.049h-23.839c-0.779,0-1.289-0.219-1.532-0.657
		c-0.243-0.438-0.365-1.095-0.365-1.97c0-0.875,0.122-1.532,0.365-1.97c0.243-0.438,0.754-0.657,1.532-0.657h23.985
		c2.854,0,4.873-0.365,6.057-1.095c1.184-0.729,1.776-1.629,1.776-2.7v-2.432c0-1.038-0.592-1.93-1.776-2.676
		c-1.184-0.745-3.203-1.119-6.057-1.119H796.891z"/>
</g>
</svg>
